<svg width="531.76mm" height="94.382mm" version="1.1" viewBox="0 0 531.76 94.382" xmlns="http://www.w3.org/2000/svg">
 <g>
  <g transform="translate(189.82 -307.99)">
   <path d="m185.8 317.99h1v70h-1z" fill="#ff9539" stroke-width=".19148"/>
   <g transform="matrix(.74977 0 0 .74977 -207.15 307.24)" fill="#ff9638" featurekey="symbolFeature-0">
    <path d="m55 53h-23.833c-0.553 0-1 0.447-1 1s0.447 1 1 1h23.833c0.553 0 1-0.447 1-1s-0.447-1-1-1z"/>
    <path d="m49 63c0-0.553-0.447-1-1-1h-18.264c-0.553 0-1 0.447-1 1s0.447 1 1 1h18.264c0.553 0 1-0.447 1-1z"/>
    <path d="m76 53h20.735c0.553 0 1-0.447 1-1s-0.447-1-1-1h-20.735c-0.553 0-1 0.447-1 1s0.447 1 1 1z"/>
    <path d="m98.036 77h-14.036c-0.553 0-1 0.447-1 1s0.447 1 1 1h14.036c0.553 0 1-0.447 1-1s-0.447-1-1-1z"/>
    <path d="m84 90h-16c-0.553 0-1 0.447-1 1s0.447 1 1 1h16c0.553 0 1-0.447 1-1s-0.447-1-1-1z"/>
    <path d="m55 99h-14.075c-0.553 0-1 0.447-1 1s0.447 1 1 1h14.075c0.553 0 1-0.447 1-1s-0.447-1-1-1z"/>
    <path d="m76.311 112h-12.311c-0.553 0-1 0.447-1 1s0.447 1 1 1h12.311c0.553 0 1-0.447 1-1s-0.448-1-1-1z"/>
    <path d="m105 65.977c-0.269-11.303-4.594-21.786-12.177-29.544-1e-3 -1e-3 -1e-3 -2e-3 -1e-3 -3e-3 -9.715-13.992-10.814-29.341-10.824-29.494-2e-3 -0.036-0.021-0.066-0.027-0.101-0.304-3.829-9.18-5.835-17.971-5.835-8.789 0-17.663 2.005-17.971 5.832-6e-3 0.036-0.025 0.067-0.027 0.104-0.01 0.153-1.108 15.466-10.79 29.444-7.649 8.021-11.943 18.499-12.093 29.517-0.301 22.129 12.023 36.202 22.896 48.619 1.468 1.676 2.913 3.327 4.303 4.968 3.108 4.668 8.073 7.363 13.633 7.398h0.104c5.52 0 10.691-2.758 13.861-7.394 1.439-1.701 2.942-3.411 4.469-5.149 10.845-12.345 23.138-26.337 22.615-48.362zm-41-62.977c11.203 0 15.966 2.866 15.997 4.021l2e-3 0.016c-8e-3 1.149-4.769 4.028-15.999 4.028-11.24 0-16-2.885-16-4.032s4.76-4.033 16-4.033zm-16.305 6.739c1.754 1.268 4.72 2.185 8.198 2.729l-3.875 20.344c-0.104 0.543 0.253 1.066 0.795 1.17 0.063 0.012 0.126 0.018 0.188 0.018 0.471 0 0.89-0.334 0.981-0.812l3.897-20.459c1.971 0.22 4.047 0.337 6.121 0.337s4.149-0.116 6.121-0.337l3.897 20.459c0.091 0.478 0.51 0.812 0.981 0.812 0.062 0 0.125-6e-3 0.188-0.018 0.542-0.104 0.898-0.627 0.795-1.17l-3.875-20.344c3.478-0.544 6.444-1.461 8.198-2.729 0.712 4.938 3.004 15.924 10.071 26.645-25.028 6.218-47.222 1.426-52.763 0.016 7.073-10.723 9.369-21.719 10.082-26.661zm33.188 103.28c-1.547 1.76-3.069 3.493-4.527 5.217-0.022 0.026-0.044 0.055-0.063 0.084-2.812 4.139-7.433 6.613-12.328 6.562-4.9-0.031-9.278-2.419-12.011-6.552-0.021-0.032-0.045-0.064-0.07-0.094-1.408-1.664-2.873-3.338-4.362-5.038-10.637-12.146-22.691-25.913-22.401-47.274 0.14-10.345 4.119-20.188 11.203-27.795 2.62 0.708 13.396 3.359 27.924 3.359 8.206 0 17.61-0.857 27.411-3.376 7.061 7.367 11.089 17.251 11.343 27.911 0.504 21.245-11.516 34.925-22.119 46.996z"/>
   </g>
   <g transform="matrix(2.5144 0 0 2.5144 -106.48 283.3)" fill="#111" featurekey="nameFeature-0">
    <path d="m10.48 21.36c0.2-0.36 0.72-0.56 1.56-0.56 0.52 0 1 0.08 1.44 0.24 0.4 0.2 0.52 0.44 0.32 0.72-1.88 3.16-3.92 6-6.16 8.88 2.52 0.52 4.12 2.72 4.8 5.08 0.36 1.32 0.76 2.52 1.12 3.76 0.12 0.36-0.04 0.6-0.4 0.8-0.4 0.16-0.84 0.24-1.36 0.24-0.44 0-1.44-0.12-1.56-0.64-0.12-0.44-0.32-1-0.52-1.92-0.44-1.48-1.68-5.92-3.72-5.92l-0.72 0.04c0 2.36 0.04 4.76 0.12 7.16 0 0.76-1.2 0.84-1.72 0.84-0.6 0-1.64-0.08-1.76-0.84-0.24-7.64-0.16-15.6 0.2-23.88 0.12-0.76 1.12-0.84 1.72-0.84 0.52 0 1.76 0.08 1.76 0.84-0.12 2.28-0.2 4.56-0.24 6.8l-0.12 6.8c1.8-2.32 3.52-4.84 5.24-7.6zm20.92 1.04c0.2 1.64 0.28 3.2 0.16 4.64-0.2 2.88-0.44 5.84-1.68 8.52-1.12 2.44-3.68 4.08-6.4 4.08-1.64 0-3.12-0.48-4.44-1.48s-2.16-2.32-2.6-3.92c-0.4-1.48-0.56-3-0.44-4.52 0.32-5.12 1.04-14.2 7.96-14.2 2.08 0 3.76 0.64 5.04 1.96 1.32 1.32 2.12 2.96 2.4 4.92zm-3.4 6.64 0.08-3.04c0.04-1.08 0-2.16-0.04-3.32-0.08-1.16-0.44-2.32-1.12-3.44-0.64-1.16-1.64-1.72-3-1.72-0.44 0-0.96 0.24-1.48 0.68-2.24 3.16-2.64 6.96-2.92 10.68-0.04 1.04-0.04 2.08 0 3.16 0.08 1.96 0.76 3.64 2 4.96 0.56 0.6 1.2 0.92 1.88 0.92 0.36 0 0.76-0.12 1.12-0.32 1.32-0.84 2.24-2.12 2.68-3.8 0.48-1.68 0.76-3.28 0.8-4.76zm10.64-14.36c-0.2 4.04-0.32 8.2-0.36 12.48s-0.04 8.48 0 12.52c-0.12 0.76-1.2 0.84-1.8 0.84-0.52 0-1.68-0.08-1.68-0.84-0.04-4.2-0.04-8.36 0-12.52s0.2-8.28 0.4-12.48c0-0.68 1.2-0.84 1.72-0.84 0.44 0 0.84 0.08 1.24 0.2 0.36 0.12 0.52 0.36 0.48 0.64zm17.64 7.72c0.2 1.64 0.28 3.2 0.16 4.64-0.2 2.88-0.44 5.84-1.68 8.52-1.12 2.44-3.68 4.08-6.4 4.08-1.64 0-3.12-0.48-4.44-1.48s-2.16-2.32-2.6-3.92c-0.4-1.48-0.56-3-0.44-4.52 0.32-5.12 1.04-14.2 7.96-14.2 2.08 0 3.76 0.64 5.04 1.96 1.32 1.32 2.12 2.96 2.4 4.92zm-3.4 6.64 0.08-3.04c0.04-1.08 0-2.16-0.04-3.32-0.08-1.16-0.44-2.32-1.12-3.44-0.64-1.16-1.64-1.72-3-1.72-0.44 0-0.96 0.24-1.48 0.68-2.24 3.16-2.64 6.96-2.92 10.68-0.04 1.04-0.04 2.08 0 3.16 0.08 1.96 0.76 3.64 2 4.96 0.56 0.6 1.2 0.92 1.88 0.92 0.36 0 0.76-0.12 1.12-0.32 1.32-0.84 2.24-2.12 2.68-3.8 0.48-1.68 0.76-3.28 0.8-4.76zm15.56-7.68c0.2-0.36 0.72-0.56 1.56-0.56 0.52 0 1 0.08 1.44 0.24 0.4 0.2 0.52 0.44 0.32 0.72-1.88 3.16-3.92 6-6.16 8.88 2.52 0.52 4.12 2.72 4.8 5.08 0.36 1.32 0.76 2.52 1.12 3.76 0.12 0.36-0.04 0.6-0.4 0.8-0.4 0.16-0.84 0.24-1.36 0.24-0.44 0-1.44-0.12-1.56-0.64-0.12-0.44-0.32-1-0.52-1.92-0.44-1.48-1.68-5.92-3.72-5.92l-0.72 0.04c0 2.36 0.04 4.76 0.12 7.16 0 0.76-1.2 0.84-1.72 0.84-0.6 0-1.64-0.08-1.76-0.84-0.24-7.64-0.16-15.6 0.2-23.88 0.12-0.76 1.12-0.84 1.72-0.84 0.52 0 1.76 0.08 1.76 0.84-0.12 2.28-0.2 4.56-0.24 6.8l-0.12 6.8c1.8-2.32 3.52-4.84 5.24-7.6zm22.64 6.44c0.16 4.32-0.16 8.68-1 13.04-0.12 0.76-1.16 0.8-1.76 0.8-0.4 0-0.8-0.08-1.2-0.2-0.36-0.16-0.52-0.36-0.48-0.6l0.16-0.88 0.12-0.88c-1.4 1-3.48 1.48-5.2 1.48-1.2 0-2.4-0.24-3.6-0.76-1.16-0.52-2-1.36-2.44-2.6-0.36-1-0.48-2.08-0.36-3.24 0.24-2.28 1.12-4.24 2.64-5.92 1.56-1.72 3.48-2.56 5.84-2.56 1.36 0 2.64 0.32 3.8 0.92-0.12-2.68-1.24-10.08-4.92-10.08-2.36 0-5.56 3.2-5.76 5.56-0.12 0.76-1.16 0.84-1.76 0.84-0.44 0-0.84-0.08-1.2-0.24-0.36-0.12-0.56-0.32-0.52-0.6 0.32-3.92 5.68-7.36 9.48-7.36 6.68 0 8.04 8 8.16 13.28zm-12.12 8.76c0.44 1.32 1.36 2.32 2.8 2.32 3.56 0 5.48-3.84 5.6-6.96 0-1-0.28-2.08-0.88-3.16-0.56-1.08-1.44-1.64-2.64-1.64-2.6 0-4.12 3.4-4.76 5.48-0.44 1.44-0.48 2.76-0.12 3.96zm29.16-3.12c0.28 2.2-0.32 3.84-1.8 4.92s-3.16 1.64-5.04 1.64c-1.4 0-2.76-0.32-4.12-0.96-1.32-0.68-2.2-1.72-2.64-3.16-0.28-0.96-0.32-2-0.04-3.16 0.2-0.68 1.28-0.84 1.88-0.84 0.44 0 0.92 0.08 1.36 0.2 0.36 0.16 0.52 0.36 0.48 0.64-0.12 0.44-0.12 1-0.08 1.72 0.04 0.84 0.32 1.72 0.76 2.6 0.48 0.88 1.24 1.32 2.24 1.32h0.2c1.12-0.04 1.92-0.52 2.36-1.44s0.72-1.88 0.76-2.8c0-1.84-0.64-3.32-1.88-4.44s-2.56-2.04-4.04-2.8c-0.88-0.48-1.68-0.96-2.36-1.44-0.76-0.52-1.32-1.24-1.64-2.16-0.36-0.96-0.36-1.96-0.04-2.96 0.44-1.64 1.48-3.16 3.04-4.48 1.6-1.36 3.28-2.04 5.04-2.04 2.4 0 4.56 1.36 5.16 3.76 0.24 1.2 0.36 2.24 0.4 3.08 0 0.28-0.2 0.52-0.56 0.64-0.4 0.16-0.84 0.24-1.28 0.24s-0.88-0.08-1.24-0.24c-0.4-0.12-0.6-0.36-0.6-0.64-0.04-0.28-0.04-0.72-0.08-1.24-0.04-0.4-0.12-0.92-0.28-1.6-0.16-0.56-0.36-1.04-0.6-1.4-0.28-0.36-0.64-0.56-1.04-0.56-0.48 0-0.96 0.24-1.48 0.68-1.48 1.4-2.44 2.6-2.92 4.64-0.32 1.32 0.08 2.44 1.2 3.36 0.84 0.76 1.8 1.32 2.84 1.76 1.44 0.68 2.76 1.6 3.96 2.84s1.88 2.68 2.08 4.32z"/>
   </g>
   <g transform="translate(128.63 -125.4)" stroke-width=".53704" aria-label="ΣΥΝΤΑΓΕΣ ΑΥΘΕΝΤΙΚΗΣ ΚΥΠΡΟΥ">
    <path d="m81.536 457.27h7.657v1.7831h-10.09v-1.7831l5.0242-6.5451-5.0242-5.5487v-1.7831h9.9016v1.7831h-7.4682l5.0242 5.5067z"/>
    <path d="m90.546 443.39h2.2761l4.3425 6.4402 4.311-6.4402h2.2761l-5.5382 8.2024v7.4577h-2.1293v-7.4577z"/>
    <path d="m105.83 443.39h2.853l6.9437 13.101v-13.101h2.0558v15.66h-2.853l-6.9437-13.101v13.101h-2.0558z"/>
    <path d="m119.73 443.39h13.248v1.7831h-5.5592v13.877h-2.1293v-13.877h-5.5592z"/>
    <path d="m140.26 445.48-2.874 7.7933h5.7585zm-1.1958-2.0873h2.402l5.9682 15.66h-2.2027l-1.4265-4.0173h-7.0591l-1.4265 4.0173h-2.2342z"/>
    <path d="m149.71 459.05v-15.66h9.7443v1.7831h-7.6255v13.877z"/>
    <path d="m161.67 443.39h9.9016v1.7831h-7.7828v4.6361h7.4577v1.7831h-7.4577v5.6746h7.9716v1.7831h-10.09z"/>
    <path d="m177.7 457.27h7.657v1.7831h-10.09v-1.7831l5.0242-6.5451-5.0242-5.5487v-1.7831h9.9016v1.7831h-7.4682l5.0242 5.5067z"/>
    <path d="m84.337 472.49-2.874 7.7933h5.7585zm-1.1957-2.0873h2.402l5.9682 15.66h-2.2027l-1.4265-4.0173h-7.0591l-1.4265 4.0173h-2.2342z"/>
    <path d="m91.637 470.41h2.2761l4.3425 6.4402 4.311-6.4402h2.2761l-5.5382 8.2024v7.4577h-2.1293v-7.4577z"/>
    <path d="m109.56 476.84h7.4052v1.7831h-7.4052zm3.7131-4.9928q-2.3076 0-3.6607 1.7202-1.3636 1.7202-1.3636 4.6886 0 2.9579 1.3531 4.6781 1.3636 1.7202 3.6712 1.7202 2.3076 0 3.6607-1.7202 1.3426-1.7202 1.3426-4.6781 0-2.9684-1.3426-4.6886-1.3531-1.7202-3.6607-1.7202zm0-1.7202q3.2936 0 5.2655 2.2132 1.9719 2.2027 1.9719 5.9158 0 3.7026-1.9719 5.9053-1.9719 2.2132-5.2655 2.2132-3.304 0-5.276-2.2027-1.9824-2.2027-1.9824-5.9158t1.9824-5.9263q1.9719-2.2027 5.276-2.2027z"/>
    <path d="m123.83 470.41h9.9016v1.7831h-7.7828v4.6361h7.4577v1.7831h-7.4577v5.6746h7.9716v1.7831h-10.09z"/>
    <path d="m137.42 470.41h2.853l6.9437 13.101v-13.101h2.0558v15.66h-2.853l-6.9437-13.101v13.101h-2.0558z"/>
    <path d="m151.32 470.41h13.248v1.7831h-5.5592v13.877h-2.1293v-13.877h-5.5592z"/>
    <path d="m166.62 470.41h2.1188v15.66h-2.1188z"/>
    <path d="m172.96 470.41h2.1188v6.6186l7.0276-6.6186h2.7272l-7.7724 7.3004 8.3283 8.3598h-2.7901l-7.5206-7.5416v7.5416h-2.1188z"/>
    <path d="m187.06 470.41h2.1188v6.4193h7.6989v-6.4193h2.1188v15.66h-2.1188v-7.4577h-7.6989v7.4577h-2.1188z"/>
    <path d="m205.64 484.28h7.657v1.7831h-10.09v-1.7831l5.0242-6.5451-5.0242-5.5487v-1.7831h9.9016v1.7831h-7.4682l5.0242 5.5067z"/>
    <path d="m79.103 497.42h2.1188v6.6186l7.0276-6.6186h2.7271l-7.7724 7.3004 8.3283 8.3598h-2.7901l-7.5206-7.5416v7.5416h-2.1188z"/>
    <path d="m91.05 497.42h2.2761l4.3425 6.4402 4.311-6.4402h2.2761l-5.5382 8.2024v7.4577h-2.1293v-7.4577z"/>
    <path d="m118.27 497.42v15.66h-2.1188v-13.877h-7.6989v13.877h-2.1188v-15.66z"/>
    <path d="m124.6 499.17v5.8843h2.6642q1.479 0 2.2866-0.7657 0.80766-0.7657 0.80766-2.1817 0-1.4055-0.80766-2.1712-0.80765-0.7657-2.2866-0.7657zm-2.1188-1.7412h4.783q2.6327 0 3.9753 1.1957 1.3531 1.1853 1.3531 3.4824 0 2.3181-1.3531 3.5033-1.3426 1.1853-3.9753 1.1853h-2.6642v6.2934h-2.1188z"/>
    <path d="m141.81 498.86q-2.3076 0-3.6712 1.7202-1.3531 1.7202-1.3531 4.6886 0 2.9579 1.3531 4.6781 1.3636 1.7202 3.6712 1.7202 2.3076 0 3.6502-1.7202 1.3531-1.7202 1.3531-4.6781 0-2.9684-1.3531-4.6886-1.3426-1.7202-3.6502-1.7202zm0-1.7202q3.2936 0 5.2655 2.2132 1.9719 2.2027 1.9719 5.9158 0 3.7026-1.9719 5.9158-1.9719 2.2027-5.2655 2.2027-3.304 0-5.2865-2.2027-1.9719-2.2027-1.9719-5.9158t1.9719-5.9158q1.9824-2.2132 5.2865-2.2132z"/>
    <path d="m150.21 497.42h2.2761l4.3424 6.4402 4.311-6.4402h2.2761l-5.5382 8.2024v7.4577h-2.1293v-7.4577z"/>
   </g>
  </g>
 </g>
</svg>
