<svg width="495.23mm" height="94.382mm" version="1.1" viewBox="0 0 495.23 94.382" xmlns="http://www.w3.org/2000/svg">
 <g transform="translate(-8.9815e-7 150)">
  <g transform="translate(189.82 -307.99)">
   <g transform="matrix(2.0304 0 0 2.0304 -437.36 116.87)" stroke-width=".26458" aria-label="OTANTİK KIBRIS TARİFLERİ">
    <path d="m318.79 34.988q-0.64079-0.05168-1.0439-0.44442-0.40308-0.39274-0.62012-1.0025-0.2067-0.62012-0.23771-1.3953-0.031-0.78548 0.093-1.6123 0.12402-0.86816 0.40307-1.7053 0.27906-0.84749 0.66146-1.4986 0.3824-0.65112 0.84749-1.0232 0.46509-0.37207 0.97151-0.31006 0.5271 0.07235 0.8785 0.54777 0.36174 0.46509 0.54777 1.1782 0.19637 0.71313 0.22738 1.5916 0.0413 0.86816-0.0723 1.7467-0.10335 0.79582-0.34106 1.5296-0.22738 0.72347-0.56844 1.2712-0.34107 0.54777-0.78548 0.85783-0.43408 0.31006-0.96118 0.26872zm0.89917-8.3819q-0.23772-0.01034-0.47543 0.1757-0.22737 0.1757-0.45475 0.48576-0.21704 0.31006-0.41341 0.72347t-0.36173 0.8785q-0.15503 0.45475-0.27905 0.93017-0.11369 0.47542-0.1757 0.9095-0.093 0.63045-0.093 1.2712 0.0103 0.63045 0.14469 1.1575 0.13436 0.5271 0.41341 0.88883 0.27906 0.3514 0.73381 0.42374 0.3824 0.06201 0.7338-0.21704 0.3514-0.27905 0.64079-0.76481 0.28938-0.49609 0.49609-1.1265 0.21704-0.63045 0.31006-1.2816 0.10335-0.74414 0.0827-1.5193-0.0207-0.78548-0.1757-1.4263-0.1447-0.65112-0.43408-1.0645-0.27905-0.42375-0.69246-0.44442z"/>
    <path d="m328.33 26.048q0.13436 0 0.21704 0.09302 0.093 0.08268 0.11369 0.19637 0.0207 0.11369-0.031 0.22738-0.0413 0.10335-0.1757 0.13436-0.32039-0.01034-0.75447 0.04134-0.42375 0.04134-0.86816 0.12402-0.43409 0.07235-0.83716 0.15503-0.39274 0.08268-0.64079 0.14469 0.0103 0.3514 0.0207 0.95084 0.0103 0.58911 0.031 1.3126t0.031 1.5089q0.0207 0.78548 0.0413 1.5089 0.0207 0.72347 0.031 1.3229 0.0207 0.59944 0.031 0.95084-0.0207 0.14469-0.12402 0.21704-0.10336 0.06201-0.21704 0.06201-0.11369 0-0.21704-0.06201-0.093-0.07235-0.10336-0.2067 0.0207-0.2067 0.031-0.71313 0.0103-0.51676 0.0103-1.1989 0-0.69246-0.0103-1.4779-0.0103-0.79582-0.0207-1.5606-0.0103-0.76481-0.031-1.4263-0.0103-0.66146-0.0207-1.0852-0.2067 0.02067-0.57877 0.08268-0.36174 0.06201-0.75448 0.14469-0.39274 0.08268-0.75447 0.18603-0.36173 0.10335-0.56844 0.2067-0.13436 0.02067-0.22737-0.06201-0.0827-0.09302-0.11369-0.2067-0.031-0.11369 0.0103-0.21704 0.0517-0.11369 0.18604-0.13436 0.3514-0.08268 0.84749-0.1757 0.49609-0.09302 1.0645-0.19637 0.56844-0.10335 1.1782-0.2067 0.60978-0.11369 1.1886-0.21704 0.58911-0.11369 1.1059-0.21704 0.52709-0.11369 0.9095-0.2067z"/>
    <path d="m332.48 34.688q0 0.14469-0.093 0.22738-0.093 0.08268-0.20671 0.09302-0.11369 0.02067-0.22737-0.03101-0.10336-0.05168-0.13436-0.18603-0.0103-0.26872-0.0517-0.66146-0.031-0.39274-0.093-0.85783-0.062-0.47542-0.14469-1.0129-0.0827-0.54777-0.1757-1.1059-0.7028 0.08268-1.3436 0.2067-0.64079 0.11369-1.1576 0.23771-0.3514 0.83716-0.69246 1.664-0.34107 0.82682-0.65112 1.571-0.0723 0.12402-0.19637 0.14469-0.12403 0.02067-0.23771-0.02067-0.10336-0.05168-0.16537-0.15503-0.062-0.10335-0.0103-0.22738 0.22737-0.39274 0.56844-1.1369 0.35139-0.74414 0.74413-1.6536-0.062 0.02067-0.12402 0.04134-0.0517 0.01033-0.10335 0.03101-0.13436 0.02067-0.22738-0.06201-0.093-0.09302-0.12402-0.2067-0.0207-0.12402 0.0207-0.22738 0.0517-0.10335 0.18603-0.12402 0.12403-0.03101 0.26872-0.05168 0.15503-0.03101 0.39274-0.07235 0.32039-0.75447 0.63045-1.5089 0.31006-0.76481 0.56844-1.4159 0.25838-0.66146 0.44442-1.1575 0.18603-0.50643 0.24804-0.74414 0.031-0.09302 0.12403-0.15503 0.10335-0.06201 0.2067-0.07235 0.11369-0.01033 0.20671 0.05168 0.10335 0.05168 0.12402 0.2067 0.031 0.2067 0.093 0.62012 0.0723 0.40308 0.16536 0.96118 0.10335 0.54777 0.21704 1.2196 0.11369 0.67179 0.23771 1.4056 0.11369-0.02067 0.22738-0.04134 0.11368-0.02067 0.22737-0.04134 0.1447 0 0.22738 0.08268 0.0827 0.08268 0.10335 0.19637 0.0207 0.11369-0.031 0.21704t-0.18603 0.13436l-0.46509 0.03101q0.1447 0.9095 0.29973 1.819 0.16536 0.9095 0.31005 1.7673zm-1.8707-7.4q-0.13436 0.33073-0.29972 0.75447-0.16536 0.41341-0.36173 0.89917-0.19637 0.47542-0.41341 1.0025-0.20671 0.5271-0.43408 1.0645 0.36173-0.06201 0.87849-0.14469 0.5271-0.09302 1.2816-0.23771-0.0827-0.46509-0.16536-0.91984-0.0827-0.46509-0.1757-0.89917-0.0827-0.43408-0.16536-0.81648-0.0723-0.39274-0.1447-0.7028z"/>
    <path d="m337.41 34.761q-0.21704-0.47542-0.51676-1.0852-0.28939-0.62012-0.63045-1.3022-0.34107-0.68213-0.7028-1.3849-0.3514-0.71313-0.69246-1.3746-0.33073-0.66146-0.62012-1.2402-0.28938-0.57877-0.48575-0.99218 0.0103 0.62012 0.031 1.4883 0.0207 0.86816 0.0413 1.8603 0.031 0.99218 0.0517 2.036 0.0207 1.0335 0.0517 1.9947-0.0207 0.14469-0.12402 0.2067-0.10335 0.07235-0.21704 0.07235t-0.21704-0.07235q-0.093-0.06201-0.10335-0.19637 0.0517-0.43408 0.0724-1.1369 0.0207-0.71313 0.0103-1.5503 0-0.84749-0.0207-1.7363-0.0207-0.88883-0.062-1.6743-0.031-0.78548-0.0827-1.3849-0.0413-0.60978-0.093-0.88883-0.031-0.15503 0.0517-0.24805 0.0827-0.09302 0.2067-0.11369 0.12402-0.03101 0.23771 0.01034 0.12402 0.04134 0.1757 0.14469 0.0413 0.09302 0.23771 0.49609 0.19637 0.40308 0.49609 1.0129 0.29973 0.59944 0.68213 1.3746 0.3824 0.76481 0.79581 1.5916 0.41341 0.82682 0.83716 1.6743 0.43408 0.84749 0.82682 1.602 0.031-0.72347 0.0517-1.5089 0.0207-0.79582 0.031-1.5813t0.0207-1.5193q0.0103-0.74414 0.0103-1.3539 0-0.62012-0.0103-1.0645 0-0.45475 0-0.67179 0-0.13436 0.093-0.19637 0.10335-0.06201 0.21704-0.05168 0.12402 0.01033 0.22738 0.08268 0.10335 0.07235 0.10335 0.2067-0.0103 0.07235-0.031 0.47542-0.0207 0.40307-0.0517 1.0439-0.0207 0.63045-0.0517 1.4469-0.031 0.80615-0.0517 1.695t-0.0413 1.7983q-0.0103 0.89917 0 1.726 0 0.21704-0.093 0.3514-0.0827 0.12402-0.20671 0.15503-0.12402 0.04134-0.25838-0.01034-0.12402-0.05168-0.19637-0.2067z"/>
    <path d="m345.18 26.048q0.13436 0 0.21704 0.09302 0.093 0.08268 0.11369 0.19637 0.0207 0.11369-0.031 0.22738-0.0413 0.10335-0.1757 0.13436-0.32039-0.01034-0.75447 0.04134-0.42374 0.04134-0.86816 0.12402-0.43408 0.07235-0.83716 0.15503-0.39274 0.08268-0.64078 0.14469 0.0103 0.3514 0.0207 0.95084 0.0103 0.58911 0.031 1.3126t0.031 1.5089q0.0207 0.78548 0.0413 1.5089 0.0207 0.72347 0.031 1.3229 0.0207 0.59944 0.031 0.95084-0.0207 0.14469-0.12402 0.21704-0.10335 0.06201-0.21704 0.06201t-0.21704-0.06201q-0.093-0.07235-0.10335-0.2067 0.0207-0.2067 0.031-0.71313 0.0103-0.51676 0.0103-1.1989 0-0.69246-0.0103-1.4779-0.0103-0.79582-0.0207-1.5606-0.0103-0.76481-0.031-1.4263-0.0103-0.66146-0.0207-1.0852-0.20671 0.02067-0.57878 0.08268-0.36173 0.06201-0.75447 0.14469-0.39274 0.08268-0.75448 0.18603-0.36173 0.10335-0.56843 0.2067-0.13436 0.02067-0.22738-0.06201-0.0827-0.09302-0.11369-0.2067-0.031-0.11369 0.0103-0.21704 0.0517-0.11369 0.18603-0.13436 0.3514-0.08268 0.84749-0.1757 0.49609-0.09302 1.0645-0.19637 0.56844-0.10335 1.1782-0.2067 0.60978-0.11369 1.1886-0.21704 0.58911-0.11369 1.1059-0.21704 0.5271-0.11369 0.9095-0.2067z"/>
    <path d="m351.3 33.882q0.14469 0 0.22738 0.09302 0.0827 0.09302 0.093 0.2067 0.0207 0.11369-0.0413 0.21704-0.0517 0.09302-0.18603 0.11369-0.69246 0.01033-1.4056 0.08268-0.70279 0.06201-1.3539 0.15503-0.64079 0.09302-1.1886 0.19637-0.54777 0.10335-0.91984 0.19637-0.13435 0.03101-0.22737-0.06201-0.0827-0.08268-0.10335-0.19637-0.0207-0.12402 0.0207-0.22738 0.0517-0.11369 0.18603-0.13436 0.10335-0.01033 0.25838-0.03101 0.15503-0.02067 0.38241-0.04134 0.22737-0.03101 0.53743-0.06201 0.32039-0.04134 0.76481-0.09302 0.031-0.53743 0.031-1.1886 0.0103-0.66146 0-1.3643 0-0.7028-0.0207-1.4056-0.0103-0.71313-0.0413-1.3539-0.0207-0.64079-0.062-1.1679-0.031-0.53743-0.062-0.88883-0.31006 0.04134-0.60978 0.09302-0.29972 0.04134-0.56844 0.09302-0.25838 0.05168-0.47542 0.10335-0.21704 0.04134-0.3514 0.08268-0.13436 0.02067-0.22738-0.07235-0.0827-0.10335-0.10335-0.21704-0.0207-0.12402 0.0207-0.22738 0.0517-0.10335 0.18604-0.10335 0.10335 0 0.42374-0.03101 0.3204-0.04134 0.76481-0.09302 0.44442-0.06201 0.96118-0.12402 0.5271-0.07235 1.0439-0.14469 0.51676-0.07235 0.96118-0.13436 0.45475-0.06201 0.76481-0.11369 0.14469 0 0.22737 0.09302 0.0827 0.09302 0.093 0.2067 0.0207 0.11369-0.0413 0.21704-0.0517 0.09302-0.18603 0.11369-0.55811 0.01034-1.1369 0.06201-0.56844 0.04134-1.1576 0.11369 0.0103 0.46509 0.0207 1.2816 0.0207 0.80615 0.0413 1.8087 0.031 1.0025 0.0517 2.1084t0.0517 2.1704q0.46509-0.05168 1.0439-0.13436 0.57878-0.08268 1.3126-0.19637zm-2.8939-7.9788q-0.18603 0-0.28939-0.11369-0.093-0.11369-0.093-0.24805 0-0.13436 0.093-0.24805 0.093-0.11369 0.28939-0.11369 0.18603 0 0.27905 0.11369 0.093 0.11369 0.093 0.24805 0 0.13436-0.093 0.24805t-0.27905 0.11369z"/>
    <path d="m356.31 34.843q-0.20671-0.40308-0.55811-0.96118-0.34106-0.56844-0.76481-1.1369-0.42374-0.56844-0.88883-1.0645-0.46508-0.50643-0.91983-0.79581 0.0103 0.15503-0.0207 0.46509-0.0207 0.31006-0.062 0.69246-0.031 0.3824-0.0827 0.80615-0.0413 0.42374-0.093 0.80615-0.0413 0.3824-0.0827 0.69246-0.031 0.31006-0.0413 0.45475-0.0413 0.13436-0.15503 0.18603-0.11369 0.05168-0.23771 0.03101-0.11369-0.01033-0.19637-0.09302-0.0827-0.08268-0.0724-0.21704 0.19637-0.51676 0.29973-1.2816 0.11368-0.76481 0.14469-1.6226 0.0413-0.86816 0.0207-1.7467-0.0103-0.88883-0.0517-1.6433-0.0413-0.76481-0.093-1.3126-0.0517-0.5581-0.093-0.76481 0-0.13436 0.10335-0.2067 0.10336-0.07235 0.21704-0.08268 0.12403-0.01034 0.21704 0.05168 0.10336 0.06201 0.10336 0.19637 0.0103 0.13436 0.0207 0.36173 0.0207 0.21704 0.0413 0.64079 0.0207 0.41341 0.0413 1.0955 0.031 0.68213 0.0517 1.7363 0.1757-0.12402 0.43409-0.42374 0.26871-0.29972 0.56843-0.68213 0.31006-0.39274 0.62012-0.82682 0.32039-0.43408 0.58911-0.83716t0.46509-0.7338q0.2067-0.34106 0.27905-0.5271 0.0413-0.11369 0.15503-0.10335 0.12402 0 0.22737 0.07235 0.11369 0.07235 0.16537 0.19637 0.062 0.11369-0.0103 0.21704-0.0517 0.08268-0.22737 0.34106-0.16537 0.24805-0.42375 0.60978-0.24805 0.36173-0.5581 0.78548-0.29973 0.42375-0.62012 0.83716t-0.64078 0.78548q-0.31006 0.37207-0.56844 0.62012 0.28938 0.21704 0.62011 0.5581 0.34106 0.34106 0.67179 0.74414 0.34107 0.40308 0.66146 0.82682 0.32039 0.42374 0.58911 0.79581t0.45475 0.67179q0.18603 0.29972 0.26872 0.44442 0.062 0.12402 0.0103 0.22738-0.0413 0.10335-0.14469 0.16536-0.093 0.06201-0.21704 0.06201-0.12403-0.01034-0.21704-0.11369z"/>
    <path d="m321.19 47.096q-0.20671-0.40308-0.55811-0.96118-0.34106-0.56844-0.76481-1.1369-0.42374-0.56844-0.88883-1.0645-0.46508-0.50643-0.91983-0.79581 0.0103 0.15503-0.0207 0.46509-0.0207 0.31006-0.062 0.69246-0.031 0.3824-0.0827 0.80615-0.0413 0.42375-0.093 0.80615-0.0413 0.3824-0.0827 0.69246-0.031 0.31006-0.0413 0.45475-0.0413 0.13436-0.15503 0.18604-0.11369 0.05168-0.23771 0.03101-0.11369-0.01034-0.19637-0.09302-0.0827-0.08268-0.0723-0.21704 0.19637-0.51676 0.29973-1.2816 0.11368-0.76481 0.14469-1.6226 0.0413-0.86816 0.0207-1.7467-0.0103-0.88883-0.0517-1.6433-0.0413-0.76481-0.093-1.3126-0.0517-0.5581-0.093-0.76481 0-0.13436 0.10335-0.2067 0.10336-0.07235 0.21704-0.08268 0.12403-0.01033 0.21704 0.05168 0.10336 0.06201 0.10336 0.19637 0.0103 0.13436 0.0207 0.36173 0.0207 0.21704 0.0413 0.64079 0.0207 0.41341 0.0413 1.0955 0.031 0.68213 0.0517 1.7363 0.1757-0.12402 0.43409-0.42374 0.26871-0.29972 0.56843-0.68213 0.31006-0.39274 0.62012-0.82682 0.32039-0.43408 0.58911-0.83716 0.26872-0.40308 0.46509-0.7338 0.2067-0.34106 0.27905-0.5271 0.0413-0.11369 0.15503-0.10335 0.12402 0 0.22737 0.07235 0.11369 0.07235 0.16537 0.19637 0.062 0.11369-0.0103 0.21704-0.0517 0.08268-0.22738 0.34106-0.16536 0.24805-0.42374 0.60978-0.24805 0.36173-0.5581 0.78548-0.29973 0.42374-0.62012 0.83716t-0.64079 0.78548q-0.31005 0.37207-0.56843 0.62012 0.28938 0.21704 0.62011 0.5581 0.34106 0.34106 0.67179 0.74414 0.34107 0.40307 0.66146 0.82682 0.32039 0.42374 0.58911 0.79581 0.26871 0.37207 0.45475 0.67179 0.18603 0.29972 0.26872 0.44442 0.062 0.12402 0.0103 0.22738-0.0413 0.10335-0.14469 0.16536-0.093 0.06201-0.21704 0.06201-0.12403-0.01033-0.21704-0.11369z"/>
    <path d="m327.61 46.135q0.14469 0 0.22738 0.09302 0.0827 0.09302 0.093 0.2067 0.0207 0.11369-0.0413 0.21704-0.0517 0.09302-0.18603 0.11369-0.69247 0.01033-1.4056 0.08268-0.70279 0.06201-1.3539 0.15503-0.64078 0.09302-1.1886 0.19637-0.54777 0.10335-0.91984 0.19637-0.13436 0.03101-0.22737-0.06201-0.0827-0.08268-0.10336-0.19637-0.0207-0.12402 0.0207-0.22738 0.0517-0.11369 0.18604-0.13436 0.10335-0.01033 0.25838-0.03101 0.15503-0.02067 0.38241-0.04134 0.22737-0.03101 0.53743-0.06201 0.32039-0.04134 0.76481-0.09302 0.031-0.53743 0.031-1.1886 0.0103-0.66146 0-1.3643 0-0.7028-0.0207-1.4056-0.0103-0.71313-0.0413-1.3539-0.0207-0.64078-0.062-1.1679-0.031-0.53743-0.062-0.88883-0.31006 0.04134-0.60978 0.09302-0.29972 0.04134-0.56844 0.09302-0.25838 0.05168-0.47542 0.10335-0.21704 0.04134-0.3514 0.08268-0.13436 0.02067-0.22738-0.07235-0.0827-0.10335-0.10335-0.21704-0.0207-0.12402 0.0207-0.22738 0.0517-0.10335 0.18604-0.10335 0.10335 0 0.42374-0.03101 0.32039-0.04134 0.76481-0.09302 0.44442-0.06201 0.96118-0.12402 0.5271-0.07235 1.0439-0.14469 0.51676-0.07235 0.96118-0.13436 0.45475-0.06201 0.76481-0.11369 0.14469 0 0.22737 0.09302 0.0827 0.09302 0.093 0.2067 0.0207 0.11369-0.0413 0.21704-0.0517 0.09302-0.18604 0.11369-0.5581 0.01033-1.1369 0.06201-0.56844 0.04134-1.1576 0.11369 0.0103 0.46509 0.0207 1.2816 0.0207 0.80615 0.0413 1.8087 0.031 1.0025 0.0517 2.1084t0.0517 2.1704q0.46509-0.05168 1.0439-0.13436 0.57878-0.08268 1.3126-0.19637z"/>
    <path d="m333.39 43.045q0.062 0.66146-0.10336 1.2196-0.15503 0.5581-0.46508 1.0129-0.31006 0.45475-0.73381 0.80615-0.41341 0.34106-0.87849 0.57877-0.86816 0.44442-1.85 0.44442-0.0517 0.09302-0.15503 0.14469-0.093 0.05168-0.19637 0.05168-0.10335 0-0.18604-0.06201-0.0827-0.05168-0.093-0.1757 0.0413-0.42374 0.0517-1.1575 0.0207-0.7338 0-1.6123-0.0103-0.8785-0.0517-1.7983-0.031-0.93017-0.0723-1.7363-0.0413-0.80615-0.093-1.3953-0.0413-0.59944-0.0827-0.81648 0-0.13436 0.10335-0.2067 0.10336-0.07235 0.21704-0.08268 0.12403-0.01033 0.21704 0.05168 0.10336 0.06201 0.10336 0.19637 0 0.08268 0.0103 0.26872 0.0103 0.18604 0.0207 0.47542 0.53744-0.5271 1.0645-0.75447 0.53744-0.23771 0.98185-0.23771 0.45475 0 0.76481 0.2067 0.32039 0.19637 0.41341 0.53743 0.0827 0.31006-0.0103 0.7028-0.0827 0.39274-0.28939 0.78548-0.20671 0.39274-0.49609 0.75447-0.28939 0.36173-0.60978 0.60978 0.3824-0.16536 0.78548-0.18604 0.41341-0.03101 0.75447 0.10335 0.34106 0.13436 0.57877 0.45475 0.24805 0.31006 0.29973 0.81648zm-0.50643 0.07235q-0.0517-0.45475-0.27905-0.66146-0.21704-0.21704-0.53744-0.25838-0.32039-0.04134-0.69246 0.05168-0.36173 0.08268-0.69246 0.2067-0.43408 0.16536-0.81649 0.37207-0.37206 0.19637-0.59944 0.36173 0.0207 0.83716 0.0517 1.7053t0.0517 1.7053q0.86816 0.02067 1.602-0.3514 0.44441-0.21704 0.81648-0.54777 0.37207-0.34106 0.63045-0.75447t0.38241-0.8785q0.13435-0.46509 0.0827-0.95084zm-1.0025-3.9791q-0.0517-0.24805-0.34106-0.33073-0.28939-0.09302-0.69247 0.01033-0.40307 0.09302-0.85782 0.3824-0.44442 0.28939-0.81649 0.79582 0.0207 0.5271 0.031 1.1679 0.0207 0.64078 0.0413 1.3746 0.54777-0.25838 1.0542-0.68213 0.51677-0.43408 0.88884-0.91984t0.56844-0.96118q0.19637-0.48576 0.12402-0.83716z"/>
    <path d="m334.8 47.013q-0.0207 0.14469-0.12403 0.2067-0.10335 0.07235-0.21704 0.07235-0.11368 0-0.21704-0.07235-0.093-0.06201-0.10335-0.19637 0.0517-0.43408 0.062-1.1575 0.0207-0.7338 0.0103-1.5916-0.0103-0.85783-0.0413-1.757-0.0207-0.89917-0.062-1.6743-0.031-0.78548-0.0723-1.3539-0.0413-0.57877-0.0827-0.78548 0-0.13436 0.10335-0.2067 0.10335-0.07235 0.21704-0.08268 0.12402-0.01034 0.21704 0.05168 0.10335 0.06201 0.10335 0.19637 0.0103 0.09302 0.0103 0.42375 0 0.33073 0.0207 0.76481 0.15503-0.19637 0.40307-0.45475 0.25838-0.25838 0.57878-0.49609 0.33072-0.24805 0.69246-0.43408 0.36173-0.19637 0.71313-0.25838 0.36173-0.06201 0.68213 0.04134 0.33073 0.09302 0.58911 0.42374 0.1757 0.22738 0.23771 0.5581 0.0723 0.32039 0.0413 0.68213-0.062 0.63045-0.44442 1.1989-0.3824 0.5581-0.93017 1.0232-0.53743 0.45475-1.1369 0.80615-0.59944 0.34106-1.0955 0.53743 0.093 0.21704 0.36173 0.51676 0.27905 0.28939 0.64079 0.60978 0.36173 0.31006 0.7648 0.63045 0.41341 0.32039 0.78548 0.59944 0.38241 0.26872 0.68213 0.48576 0.29972 0.2067 0.43408 0.31006 0.093 0.06201 0.0723 0.2067-0.0103 0.13436-0.10336 0.25838-0.0827 0.11369-0.23771 0.14469-0.14469 0.04134-0.32039-0.09302-0.10335-0.07235-0.3514-0.28939-0.23771-0.21704-0.56844-0.50643-0.33072-0.28939-0.69246-0.62012-0.36173-0.33073-0.7028-0.64079-0.34106-0.32039-0.60978-0.57877-0.26871-0.26872-0.39274-0.41341 0.0207 0.77514 0.0414 1.4779 0.0207 0.69246 0.0413 1.4366zm3.0696-7.8651q-0.1757-0.26872-0.44442-0.34106-0.26872-0.07235-0.57877 0.02067-0.28939 0.08268-0.59945 0.28939-0.29972 0.19637-0.58911 0.46509-0.28938 0.25838-0.5581 0.57877-0.25838 0.31006-0.45475 0.63045 0.0207 0.47542 0.0207 1.0232 0.0103 0.54777 0.031 1.1369 0.47543-0.14469 1.0335-0.43408 0.5581-0.29972 1.0439-0.7028 0.49609-0.40308 0.83716-0.89917 0.34106-0.50643 0.39274-1.0749 0.0413-0.43408-0.13436-0.69246z"/>
    <path d="m344.5 46.135q0.1447 0 0.22738 0.09302 0.0827 0.09302 0.093 0.2067 0.0207 0.11369-0.0413 0.21704-0.0517 0.09302-0.18604 0.11369-0.69246 0.01033-1.4056 0.08268-0.7028 0.06201-1.3539 0.15503-0.64079 0.09302-1.1886 0.19637-0.54776 0.10335-0.91983 0.19637-0.13436 0.03101-0.22738-0.06201-0.0827-0.08268-0.10335-0.19637-0.0207-0.12402 0.0207-0.22738 0.0517-0.11369 0.18603-0.13436 0.10336-0.01033 0.25839-0.03101 0.15502-0.02067 0.3824-0.04134 0.22738-0.03101 0.53743-0.06201 0.3204-0.04134 0.76481-0.09302 0.031-0.53743 0.031-1.1886 0.0103-0.66146 0-1.3643 0-0.7028-0.0207-1.4056-0.0103-0.71313-0.0413-1.3539-0.0207-0.64078-0.062-1.1679-0.031-0.53743-0.062-0.88883-0.31005 0.04134-0.60978 0.09302-0.29972 0.04134-0.56844 0.09302-0.25838 0.05168-0.47542 0.10335-0.21704 0.04134-0.3514 0.08268-0.13435 0.02067-0.22737-0.07235-0.0827-0.10335-0.10335-0.21704-0.0207-0.12402 0.0207-0.22738 0.0517-0.10335 0.18603-0.10335 0.10335 0 0.42375-0.03101 0.32039-0.04134 0.76481-0.09302 0.44441-0.06201 0.96117-0.12402 0.5271-0.07235 1.0439-0.14469 0.51677-0.07235 0.96118-0.13436 0.45475-0.06201 0.76481-0.11369 0.1447 0 0.22738 0.09302 0.0827 0.09302 0.093 0.2067 0.0207 0.11369-0.0413 0.21704-0.0517 0.09302-0.18603 0.11369-0.5581 0.01033-1.1369 0.06201-0.56844 0.04134-1.1576 0.11369 0.0103 0.46509 0.0207 1.2816 0.0207 0.80615 0.0413 1.8087 0.031 1.0025 0.0517 2.1084t0.0517 2.1704q0.46508-0.05168 1.0439-0.13436 0.57877-0.08268 1.3126-0.19637z"/>
    <path d="m344.81 44.15q-0.0207-0.12402 0.031-0.2067 0.0517-0.08268 0.12402-0.11369 0.0827-0.04134 0.1757-0.03101 0.10335 0.01033 0.1757 0.06201 0.0827 0.06201 0.10335 0.19637 0.062 0.62012 0.26872 1.1162 0.21704 0.49609 0.53743 0.83716 0.33073 0.34106 0.74414 0.5271 0.42374 0.18604 0.8785 0.19637 0.22737 0 0.40307-0.08268 0.18604-0.09302 0.32039-0.24805 0.13436-0.15503 0.20671-0.3514 0.0827-0.2067 0.11369-0.42374 0.0723-0.58911-0.1757-1.0232-0.23771-0.44442-0.64079-0.80615-0.39274-0.37207-0.8785-0.71313-0.47542-0.34106-0.89916-0.72347-0.41341-0.3824-0.69246-0.85783-0.27906-0.47542-0.26872-1.1162 0.0103-0.37207 0.12402-0.7338 0.12403-0.36173 0.3514-0.64079 0.23771-0.27905 0.57877-0.45475 0.3514-0.1757 0.80615-0.19637 0.55811-0.02067 0.94051 0.22738 0.38241 0.23771 0.60978 0.65112 0.22738 0.40308 0.29972 0.91984 0.0827 0.50643 0.0207 1.0335-0.0103 0.09302-0.10336 0.14469-0.0827 0.05168-0.1757 0.05168t-0.1757-0.05168q-0.0723-0.05168-0.0723-0.14469 0.0207-0.50643-0.0517-0.95084-0.062-0.44442-0.23771-0.75447-0.16536-0.32039-0.45475-0.48576-0.28939-0.16536-0.71313-0.10335-0.28939 0.04134-0.51677 0.18604-0.21704 0.13436-0.36173 0.34106-0.14469 0.19637-0.22738 0.44442-0.0723 0.24805-0.0723 0.50643-0.0103 0.60978 0.27905 1.0542 0.28939 0.44442 0.72347 0.81648 0.44441 0.36173 0.94051 0.7028 0.49609 0.33073 0.88883 0.7338 0.40307 0.39274 0.62011 0.89917 0.21704 0.50643 0.093 1.1989-0.062 0.31006-0.20671 0.58911-0.14469 0.26872-0.37206 0.47542-0.21704 0.19637-0.50643 0.31006-0.27905 0.11369-0.62012 0.11369-0.49609-0.01034-0.97151-0.2067-0.46509-0.19637-0.85783-0.57877-0.39274-0.39274-0.68212-0.97151-0.28939-0.58911-0.42375-1.3643z"/>
    <path d="m323.27 50.553q0.13436 0 0.21704 0.09302 0.093 0.08268 0.11369 0.19637 0.0207 0.11369-0.031 0.22738-0.0414 0.10335-0.1757 0.13436-0.3204-0.01034-0.75448 0.04134-0.42374 0.04134-0.86816 0.12402-0.43408 0.07235-0.83715 0.15503-0.39274 0.08268-0.64079 0.14469 0.0103 0.3514 0.0207 0.95084 0.0103 0.58911 0.031 1.3126 0.0207 0.72347 0.031 1.5089 0.0207 0.78548 0.0413 1.5089 0.0207 0.72347 0.031 1.3229 0.0207 0.59944 0.031 0.95084-0.0207 0.14469-0.12402 0.21704-0.10335 0.06201-0.21704 0.06201t-0.21704-0.06201q-0.093-0.07235-0.10335-0.2067 0.0207-0.20671 0.031-0.71313 0.0103-0.51676 0.0103-1.1989 0-0.69246-0.0103-1.4779-0.0103-0.79581-0.0207-1.5606-0.0103-0.76481-0.031-1.4263-0.0103-0.66146-0.0207-1.0852-0.20671 0.02067-0.57878 0.08268-0.36173 0.06201-0.75447 0.14469-0.39274 0.08268-0.75447 0.18604-0.36174 0.10335-0.56844 0.2067-0.13436 0.02067-0.22738-0.06201-0.0827-0.09302-0.11369-0.2067-0.031-0.11369 0.0103-0.21704 0.0517-0.11369 0.18603-0.13436 0.3514-0.08268 0.84749-0.1757 0.4961-0.09302 1.0645-0.19637 0.56843-0.10335 1.1782-0.2067 0.60978-0.11369 1.1886-0.21704 0.58911-0.11369 1.1059-0.21704 0.5271-0.11369 0.9095-0.2067z"/>
    <path d="m327.41 59.194q0 0.14469-0.093 0.22738-0.093 0.08268-0.2067 0.09302-0.11369 0.02067-0.22738-0.03101-0.10335-0.05168-0.13436-0.18604-0.0103-0.26872-0.0517-0.66146-0.031-0.39274-0.093-0.85783-0.062-0.47542-0.14469-1.0129-0.0827-0.54777-0.1757-1.1059-0.7028 0.08268-1.3436 0.2067-0.64078 0.11369-1.1575 0.23771-0.3514 0.83716-0.69247 1.664-0.34106 0.82682-0.65112 1.571-0.0723 0.12402-0.19637 0.14469-0.12402 0.02067-0.23771-0.02067-0.10335-0.05168-0.16536-0.15503-0.062-0.10335-0.0103-0.22738 0.22738-0.39274 0.56844-1.1369 0.3514-0.74414 0.74414-1.6536-0.062 0.02067-0.12402 0.04134-0.0517 0.01034-0.10336 0.03101-0.13435 0.02067-0.22737-0.06201-0.093-0.09302-0.12402-0.20671-0.0207-0.12402 0.0207-0.22738 0.0517-0.10335 0.18603-0.12402 0.12402-0.03101 0.26872-0.05168 0.15503-0.03101 0.39274-0.07235 0.32039-0.75447 0.63045-1.5089 0.31006-0.76481 0.56844-1.4159 0.25838-0.66146 0.44441-1.1575 0.18604-0.50643 0.24805-0.74414 0.031-0.09302 0.12402-0.15503 0.10335-0.06201 0.20671-0.07235 0.11368-0.01033 0.2067 0.05168 0.10335 0.05168 0.12402 0.2067 0.031 0.2067 0.093 0.62012 0.0724 0.40308 0.16537 0.96118 0.10335 0.54777 0.21704 1.2196 0.11368 0.67179 0.23771 1.4056 0.11368-0.02067 0.22737-0.04134t0.22738-0.04134q0.14469 0 0.22737 0.08268 0.0827 0.08268 0.10336 0.19637 0.0207 0.11369-0.031 0.21704-0.0517 0.10335-0.18603 0.13436l-0.46509 0.03101q0.14469 0.9095 0.29972 1.819 0.16537 0.9095 0.31006 1.7673zm-1.8707-7.4q-0.13436 0.33073-0.29972 0.75447-0.16537 0.41341-0.36174 0.89917-0.19637 0.47542-0.41341 1.0025-0.2067 0.5271-0.43408 1.0645 0.36174-0.06201 0.8785-0.14469 0.5271-0.09302 1.2816-0.23771-0.0827-0.46509-0.16536-0.91984-0.0827-0.46509-0.1757-0.89917-0.0827-0.43408-0.16537-0.81648-0.0723-0.39274-0.14469-0.7028z"/>
    <path d="m328.87 59.266q-0.0207 0.14469-0.12402 0.2067-0.10335 0.07235-0.21704 0.07235t-0.21704-0.07235q-0.093-0.06201-0.10336-0.19637 0.0517-0.43408 0.062-1.1575 0.0207-0.7338 0.0103-1.5916-0.0103-0.85783-0.0413-1.757-0.0207-0.89917-0.062-1.6743-0.031-0.78548-0.0723-1.3539-0.0413-0.57877-0.0827-0.78548 0-0.13436 0.10335-0.2067 0.10335-0.07235 0.21704-0.08268 0.12403-0.01033 0.21704 0.05168 0.10336 0.06201 0.10336 0.19637 0.0103 0.09302 0.0103 0.42375 0 0.33073 0.0207 0.76481 0.15503-0.19637 0.40308-0.45475 0.25838-0.25838 0.57877-0.49609 0.33073-0.24805 0.69246-0.43408 0.36174-0.19637 0.71313-0.25838 0.36174-0.06201 0.68213 0.04134 0.33073 0.09302 0.58911 0.42375 0.1757 0.22738 0.23771 0.5581 0.0723 0.32039 0.0413 0.68213-0.062 0.63045-0.44441 1.1989-0.38241 0.5581-0.93018 1.0232-0.53743 0.45475-1.1369 0.80615-0.59945 0.34106-1.0955 0.53743 0.093 0.21704 0.36173 0.51676 0.27906 0.28939 0.64079 0.60978 0.36173 0.31006 0.76481 0.63045 0.41341 0.32039 0.78548 0.59944 0.3824 0.26872 0.68212 0.48576 0.29973 0.2067 0.43408 0.31006 0.093 0.06201 0.0724 0.2067-0.0103 0.13436-0.10335 0.25838-0.0827 0.11369-0.23771 0.14469-0.1447 0.04134-0.32039-0.09302-0.10336-0.07235-0.3514-0.28939-0.23771-0.21704-0.56844-0.50643t-0.69246-0.62012q-0.36174-0.33073-0.7028-0.64079-0.34107-0.32039-0.60978-0.57877-0.26872-0.26872-0.39274-0.41341 0.0207 0.77514 0.0413 1.4779 0.0207 0.69246 0.0413 1.4366zm3.0696-7.8651q-0.1757-0.26872-0.44441-0.34106-0.26872-0.07235-0.57878 0.02067-0.28939 0.08268-0.59944 0.28939-0.29973 0.19637-0.58911 0.46509-0.28939 0.25838-0.55811 0.57877-0.25838 0.31006-0.45475 0.63045 0.0207 0.47542 0.0207 1.0232 0.0103 0.54777 0.031 1.1369 0.47542-0.14469 1.0335-0.43408 0.55811-0.29972 1.0439-0.7028 0.4961-0.40308 0.83716-0.89917 0.34106-0.50643 0.39274-1.0749 0.0413-0.43408-0.13436-0.69246z"/>
    <path d="m338.56 58.387q0.14469 0 0.22737 0.09302 0.0827 0.09302 0.093 0.2067 0.0207 0.11369-0.0413 0.21704-0.0517 0.09302-0.18603 0.11369-0.69247 0.01033-1.4056 0.08268-0.7028 0.06201-1.3539 0.15503-0.64078 0.09302-1.1886 0.19637-0.54777 0.10335-0.91984 0.19637-0.13436 0.03101-0.22737-0.06201-0.0827-0.08268-0.10336-0.19637-0.0207-0.12402 0.0207-0.22738 0.0517-0.11369 0.18604-0.13436 0.10335-0.01033 0.25838-0.03101 0.15503-0.02067 0.3824-0.04134 0.22738-0.03101 0.53744-0.06201 0.32039-0.04134 0.76481-0.09302 0.031-0.53743 0.031-1.1886 0.0103-0.66146 0-1.3643 0-0.7028-0.0207-1.4056-0.0103-0.71313-0.0413-1.3539-0.0207-0.64079-0.062-1.1679-0.031-0.53743-0.062-0.88883-0.31006 0.04134-0.60978 0.09302-0.29973 0.04134-0.56844 0.09302-0.25838 0.05168-0.47542 0.10335-0.21704 0.04134-0.3514 0.08268-0.13436 0.02067-0.22738-0.07235-0.0827-0.10335-0.10335-0.21704-0.0207-0.12402 0.0207-0.22738 0.0517-0.10335 0.18603-0.10335 0.10336 0 0.42375-0.03101 0.32039-0.04134 0.76481-0.09302 0.44442-0.06201 0.96118-0.12402 0.5271-0.07235 1.0439-0.14469 0.51676-0.07235 0.96118-0.13436 0.45475-0.06201 0.76481-0.11369 0.14469 0 0.22737 0.09302 0.0827 0.09302 0.093 0.2067 0.0207 0.11369-0.0413 0.21704-0.0517 0.09302-0.18604 0.11369-0.5581 0.01033-1.1369 0.06201-0.56844 0.04134-1.1576 0.11369 0.0103 0.46509 0.0207 1.2816 0.0207 0.80615 0.0413 1.8087 0.031 1.0025 0.0517 2.1084 0.0207 1.1059 0.0517 2.1704 0.46509-0.05168 1.0439-0.13436 0.57878-0.08268 1.3126-0.19637zm-2.8939-7.9788q-0.18604 0-0.28939-0.11369-0.093-0.11369-0.093-0.24805t0.093-0.24805 0.28939-0.11369q0.18603 0 0.27905 0.11369 0.093 0.11369 0.093 0.24805t-0.093 0.24805-0.27905 0.11369z"/>
    <path d="m343.26 54.326q0.13436 0.01034 0.20671 0.10335 0.0827 0.09302 0.093 0.2067 0.0103 0.11369-0.0517 0.21704-0.0517 0.09302-0.18604 0.11369-0.99218-0.03101-1.757 0.05168-0.75447 0.08268-1.4676 0.2067 0.0207 0.99218 0.0413 2.0257 0.031 1.0232 0.062 2.0154-0.0207 0.14469-0.12403 0.2067-0.10335 0.07235-0.21704 0.07235-0.11368 0-0.21704-0.07235-0.093-0.06201-0.10335-0.19637 0.0517-0.43408 0.062-1.1679 0.0207-0.7338 0.0103-1.602-0.0103-0.86816-0.0413-1.7777-0.0207-0.91984-0.062-1.7053-0.031-0.79581-0.0723-1.3746-0.0413-0.57877-0.0827-0.78548 0-0.13436 0.10335-0.2067 0.10335-0.07235 0.21704-0.08268 0.12402-0.01033 0.21704 0.05168 0.10335 0.06201 0.10335 0.19637v0.13436q0.1757-0.02067 0.37207-0.04134 0.20671-0.02067 0.58911-0.06201 0.39274-0.05168 1.0335-0.11369 0.65112-0.07235 1.7053-0.18603 0.13436 0.01033 0.20671 0.10335 0.0827 0.09302 0.093 0.2067 0.0103 0.11369-0.0517 0.21704-0.0517 0.09302-0.18604 0.11369-1.1989-0.04134-2.1394 0.09302-0.93018 0.12402-1.602 0.26872 0.0207 0.5271 0.031 1.3436 0.0207 0.80615 0.0413 1.7777 0.21704-0.01034 0.45475-0.04134 0.23771-0.03101 0.57877-0.07235 0.3514-0.04134 0.85783-0.09302 0.51676-0.06201 1.2816-0.14469z"/>
    <path d="m345.06 50.822q0.0103 0.11369 0.0207 0.51676 0.0103 0.40308 0.0207 1.0129 0.0207 0.59944 0.031 1.3746 0.0207 0.76481 0.0414 1.6226 0.0207 0.84749 0.0413 1.7467 0.0207 0.89917 0.0413 1.7673 1.2299 0.02067 2.1394-0.11369 0.91983-0.14469 1.4779-0.28939 0.13435-0.01034 0.21704 0.09302 0.0827 0.09302 0.093 0.21704 0.0207 0.11369-0.031 0.21704-0.0517 0.10335-0.18604 0.10335-0.1757 0.03101-0.47542 0.05168-0.29972 0.01034-0.76481 0.05168-0.45475 0.03101-1.0955 0.10335-0.64079 0.06201-1.4883 0.1757-0.0827 0.01034-0.18603 0-0.093-0.01033-0.1757-0.05168-0.0724-0.05168-0.11369-0.14469-0.0413-0.09302-0.0207-0.23771 0.062-0.43408 0.0723-1.1472 0.0207-0.72347 0.0103-1.5606-0.0103-0.83716-0.0517-1.7157-0.031-0.88883-0.0827-1.6536-0.0413-0.76481-0.093-1.3229-0.0413-0.56844-0.0827-0.77514 0-0.13436 0.10335-0.2067 0.10336-0.07235 0.21704-0.08268 0.12403-0.01033 0.21705 0.05168 0.10335 0.06201 0.10335 0.19637z"/>
    <path d="m353.61 54.326q0.13435 0.01034 0.2067 0.10335 0.0827 0.09302 0.093 0.2067 0.0103 0.11369-0.0517 0.21704-0.0517 0.09302-0.18603 0.11369-0.99219-0.03101-1.7777 0.05168-0.77514 0.08268-1.4883 0.2067 0.0207 0.88883 0.0413 1.8087 0.031 0.91984 0.0517 1.8293 0.1757-0.01033 0.39274-0.03101 0.21704-0.03101 0.60978-0.07235t1.0335-0.10335q0.64079-0.07235 1.664-0.18603 0.13435 0.01033 0.2067 0.10335 0.0827 0.09302 0.093 0.2067 0.0103 0.11369-0.0517 0.21704-0.0517 0.09302-0.18603 0.11369-0.64079-0.02067-1.2299 0.01034-0.57877 0.03101-1.0852 0.09302t-0.93017 0.14469q-0.41341 0.08268-0.72347 0.16536-0.14469 0.05168-0.28939-0.01034-0.14469-0.06201-0.15503-0.23771 0.0517-0.43408 0.062-1.1679 0.0207-0.7338 0.0103-1.602-0.0103-0.86816-0.0413-1.7777-0.0207-0.91984-0.062-1.7053-0.031-0.79581-0.0723-1.3746-0.0413-0.57877-0.0827-0.78548 0-0.13436 0.10335-0.2067 0.10335-0.07235 0.21704-0.08268 0.12403-0.01033 0.21704 0.05168 0.10335 0.06201 0.10335 0.19637v0.13436q0.1757-0.02067 0.38241-0.04134 0.21704-0.02067 0.60978-0.06201 0.39274-0.05168 1.0439-0.11369 0.65112-0.07235 1.7053-0.18603 0.13435 0.01033 0.2067 0.10335 0.0827 0.09302 0.093 0.2067 0.0103 0.11369-0.0517 0.21704-0.0517 0.09302-0.18603 0.11369-1.1989-0.04134-2.1601 0.09302-0.95084 0.12402-1.6226 0.26872 0.0207 0.5271 0.031 1.3436 0.0207 0.80615 0.0413 1.7777 0.21704-0.01034 0.45475-0.04134 0.24805-0.03101 0.59945-0.07235 0.36173-0.04134 0.87849-0.09302 0.51677-0.06201 1.2816-0.14469z"/>
    <path d="m355.8 59.266q-0.0207 0.14469-0.12402 0.2067-0.10335 0.07235-0.21704 0.07235t-0.21704-0.07235q-0.093-0.06201-0.10335-0.19637 0.0517-0.43408 0.062-1.1575 0.0207-0.7338 0.0103-1.5916-0.0103-0.85783-0.0413-1.757-0.0207-0.89917-0.062-1.6743-0.031-0.78548-0.0723-1.3539-0.0413-0.57877-0.0827-0.78548 0-0.13436 0.10335-0.2067 0.10336-0.07235 0.21704-0.08268 0.12403-0.01033 0.21705 0.05168 0.10335 0.06201 0.10335 0.19637 0.0103 0.09302 0.0103 0.42375 0 0.33073 0.0207 0.76481 0.15503-0.19637 0.40308-0.45475 0.25838-0.25838 0.57877-0.49609 0.33073-0.24805 0.69246-0.43408 0.36174-0.19637 0.71314-0.25838 0.36173-0.06201 0.68212 0.04134 0.33073 0.09302 0.58911 0.42375 0.1757 0.22738 0.23771 0.5581 0.0723 0.32039 0.0413 0.68213-0.062 0.63045-0.44441 1.1989-0.38241 0.5581-0.93017 1.0232-0.53744 0.45475-1.1369 0.80615-0.59945 0.34106-1.0955 0.53743 0.093 0.21704 0.36174 0.51676 0.27905 0.28939 0.64078 0.60978 0.36173 0.31006 0.76481 0.63045 0.41341 0.32039 0.78548 0.59944 0.3824 0.26872 0.68213 0.48576 0.29972 0.2067 0.43408 0.31006 0.093 0.06201 0.0723 0.2067-0.0103 0.13436-0.10335 0.25838-0.0827 0.11369-0.23771 0.14469-0.14469 0.04134-0.32039-0.09302-0.10336-0.07235-0.3514-0.28939-0.23771-0.21704-0.56844-0.50643t-0.69246-0.62012q-0.36174-0.33073-0.7028-0.64079-0.34106-0.32039-0.60978-0.57877-0.26872-0.26872-0.39274-0.41341 0.0207 0.77514 0.0413 1.4779 0.0207 0.69246 0.0413 1.4366zm3.0696-7.8651q-0.1757-0.26872-0.44441-0.34106-0.26872-0.07235-0.57878 0.02067-0.28938 0.08268-0.59944 0.28939-0.29972 0.19637-0.58911 0.46509-0.28939 0.25838-0.5581 0.57877-0.25839 0.31006-0.45476 0.63045 0.0207 0.47542 0.0207 1.0232 0.0103 0.54777 0.031 1.1369 0.47542-0.14469 1.0335-0.43408 0.5581-0.29972 1.0439-0.7028 0.49609-0.40308 0.83715-0.89917 0.34106-0.50643 0.39274-1.0749 0.0413-0.43408-0.13436-0.69246z"/>
    <path d="m365.5 58.387q0.14469 0 0.22738 0.09302 0.0827 0.09302 0.093 0.2067 0.0207 0.11369-0.0413 0.21704-0.0517 0.09302-0.18603 0.11369-0.69246 0.01033-1.4056 0.08268-0.70279 0.06201-1.3539 0.15503-0.64079 0.09302-1.1886 0.19637-0.54777 0.10335-0.91984 0.19637-0.13435 0.03101-0.22737-0.06201-0.0827-0.08268-0.10335-0.19637-0.0207-0.12402 0.0207-0.22738 0.0517-0.11369 0.18603-0.13436 0.10335-0.01033 0.25838-0.03101 0.15503-0.02067 0.38241-0.04134 0.22737-0.03101 0.53743-0.06201 0.32039-0.04134 0.76481-0.09302 0.031-0.53743 0.031-1.1886 0.0103-0.66146 0-1.3643 0-0.7028-0.0207-1.4056-0.0103-0.71313-0.0413-1.3539-0.0207-0.64079-0.062-1.1679-0.031-0.53743-0.062-0.88883-0.31006 0.04134-0.60978 0.09302-0.29972 0.04134-0.56844 0.09302-0.25838 0.05168-0.47542 0.10335-0.21704 0.04134-0.3514 0.08268-0.13436 0.02067-0.22738-0.07235-0.0827-0.10335-0.10335-0.21704-0.0207-0.12402 0.0207-0.22738 0.0517-0.10335 0.18604-0.10335 0.10335 0 0.42374-0.03101 0.3204-0.04134 0.76481-0.09302 0.44442-0.06201 0.96118-0.12402 0.5271-0.07235 1.0439-0.14469 0.51676-0.07235 0.96118-0.13436 0.45475-0.06201 0.76481-0.11369 0.14469 0 0.22737 0.09302 0.0827 0.09302 0.093 0.2067 0.0207 0.11369-0.0413 0.21704-0.0517 0.09302-0.18604 0.11369-0.5581 0.01033-1.1369 0.06201-0.56844 0.04134-1.1576 0.11369 0.0103 0.46509 0.0207 1.2816 0.0207 0.80615 0.0413 1.8087 0.031 1.0025 0.0517 2.1084 0.0207 1.1059 0.0517 2.1704 0.46509-0.05168 1.0439-0.13436 0.57878-0.08268 1.3126-0.19637zm-2.8939-7.9788q-0.18604 0-0.28939-0.11369-0.093-0.11369-0.093-0.24805t0.093-0.24805 0.28939-0.11369q0.18603 0 0.27905 0.11369 0.093 0.11369 0.093 0.24805t-0.093 0.24805-0.27905 0.11369z"/>
   </g>
   <path d="m185.8 167.99h1v70h-1z" fill="#ff9539" stroke-width=".19148"/>
   <g transform="matrix(.74977 0 0 .74977 -207.15 157.24)" fill="#ff9638" featurekey="symbolFeature-0">
    <path d="m55 53h-23.833c-0.553 0-1 0.447-1 1s0.447 1 1 1h23.833c0.553 0 1-0.447 1-1s-0.447-1-1-1z"/>
    <path d="m49 63c0-0.553-0.447-1-1-1h-18.264c-0.553 0-1 0.447-1 1s0.447 1 1 1h18.264c0.553 0 1-0.447 1-1z"/>
    <path d="m76 53h20.735c0.553 0 1-0.447 1-1s-0.447-1-1-1h-20.735c-0.553 0-1 0.447-1 1s0.447 1 1 1z"/>
    <path d="m98.036 77h-14.036c-0.553 0-1 0.447-1 1s0.447 1 1 1h14.036c0.553 0 1-0.447 1-1s-0.447-1-1-1z"/>
    <path d="m84 90h-16c-0.553 0-1 0.447-1 1s0.447 1 1 1h16c0.553 0 1-0.447 1-1s-0.447-1-1-1z"/>
    <path d="m55 99h-14.075c-0.553 0-1 0.447-1 1s0.447 1 1 1h14.075c0.553 0 1-0.447 1-1s-0.447-1-1-1z"/>
    <path d="m76.311 112h-12.311c-0.553 0-1 0.447-1 1s0.447 1 1 1h12.311c0.553 0 1-0.447 1-1s-0.448-1-1-1z"/>
    <path d="m105 65.977c-0.269-11.303-4.594-21.786-12.177-29.544-1e-3 -1e-3 -1e-3 -2e-3 -1e-3 -3e-3 -9.715-13.992-10.814-29.341-10.824-29.494-2e-3 -0.036-0.021-0.066-0.027-0.101-0.304-3.829-9.18-5.835-17.971-5.835-8.789 0-17.663 2.005-17.971 5.832-6e-3 0.036-0.025 0.067-0.027 0.104-0.01 0.153-1.108 15.466-10.79 29.444-7.649 8.021-11.943 18.499-12.093 29.517-0.301 22.129 12.023 36.202 22.896 48.619 1.468 1.676 2.913 3.327 4.303 4.968 3.108 4.668 8.073 7.363 13.633 7.398h0.104c5.52 0 10.691-2.758 13.861-7.394 1.439-1.701 2.942-3.411 4.469-5.149 10.845-12.345 23.138-26.337 22.615-48.362zm-41-62.977c11.203 0 15.966 2.866 15.997 4.021l2e-3 0.016c-8e-3 1.149-4.769 4.028-15.999 4.028-11.24 0-16-2.885-16-4.032s4.76-4.033 16-4.033zm-16.305 6.739c1.754 1.268 4.72 2.185 8.198 2.729l-3.875 20.344c-0.104 0.543 0.253 1.066 0.795 1.17 0.063 0.012 0.126 0.018 0.188 0.018 0.471 0 0.89-0.334 0.981-0.812l3.897-20.459c1.971 0.22 4.047 0.337 6.121 0.337s4.149-0.116 6.121-0.337l3.897 20.459c0.091 0.478 0.51 0.812 0.981 0.812 0.062 0 0.125-6e-3 0.188-0.018 0.542-0.104 0.898-0.627 0.795-1.17l-3.875-20.344c3.478-0.544 6.444-1.461 8.198-2.729 0.712 4.938 3.004 15.924 10.071 26.645-25.028 6.218-47.222 1.426-52.763 0.016 7.073-10.723 9.369-21.719 10.082-26.661zm33.188 103.28c-1.547 1.76-3.069 3.493-4.527 5.217-0.022 0.026-0.044 0.055-0.063 0.084-2.812 4.139-7.433 6.613-12.328 6.562-4.9-0.031-9.278-2.419-12.011-6.552-0.021-0.032-0.045-0.064-0.07-0.094-1.408-1.664-2.873-3.338-4.362-5.038-10.637-12.146-22.691-25.913-22.401-47.274 0.14-10.345 4.119-20.188 11.203-27.795 2.62 0.708 13.396 3.359 27.924 3.359 8.206 0 17.61-0.857 27.411-3.376 7.061 7.367 11.089 17.251 11.343 27.911 0.504 21.245-11.516 34.925-22.119 46.996z"/>
   </g>
   <g transform="matrix(2.5144 0 0 2.5144 -106.48 133.3)" fill="#111" featurekey="nameFeature-0">
    <path d="m10.48 21.36c0.2-0.36 0.72-0.56 1.56-0.56 0.52 0 1 0.08 1.44 0.24 0.4 0.2 0.52 0.44 0.32 0.72-1.88 3.16-3.92 6-6.16 8.88 2.52 0.52 4.12 2.72 4.8 5.08 0.36 1.32 0.76 2.52 1.12 3.76 0.12 0.36-0.04 0.6-0.4 0.8-0.4 0.16-0.84 0.24-1.36 0.24-0.44 0-1.44-0.12-1.56-0.64-0.12-0.44-0.32-1-0.52-1.92-0.44-1.48-1.68-5.92-3.72-5.92l-0.72 0.04c0 2.36 0.04 4.76 0.12 7.16 0 0.76-1.2 0.84-1.72 0.84-0.6 0-1.64-0.08-1.76-0.84-0.24-7.64-0.16-15.6 0.2-23.88 0.12-0.76 1.12-0.84 1.72-0.84 0.52 0 1.76 0.08 1.76 0.84-0.12 2.28-0.2 4.56-0.24 6.8l-0.12 6.8c1.8-2.32 3.52-4.84 5.24-7.6zm20.92 1.04c0.2 1.64 0.28 3.2 0.16 4.64-0.2 2.88-0.44 5.84-1.68 8.52-1.12 2.44-3.68 4.08-6.4 4.08-1.64 0-3.12-0.48-4.44-1.48s-2.16-2.32-2.6-3.92c-0.4-1.48-0.56-3-0.44-4.52 0.32-5.12 1.04-14.2 7.96-14.2 2.08 0 3.76 0.64 5.04 1.96 1.32 1.32 2.12 2.96 2.4 4.92zm-3.4 6.64 0.08-3.04c0.04-1.08 0-2.16-0.04-3.32-0.08-1.16-0.44-2.32-1.12-3.44-0.64-1.16-1.64-1.72-3-1.72-0.44 0-0.96 0.24-1.48 0.68-2.24 3.16-2.64 6.96-2.92 10.68-0.04 1.04-0.04 2.08 0 3.16 0.08 1.96 0.76 3.64 2 4.96 0.56 0.6 1.2 0.92 1.88 0.92 0.36 0 0.76-0.12 1.12-0.32 1.32-0.84 2.24-2.12 2.68-3.8 0.48-1.68 0.76-3.28 0.8-4.76zm10.64-14.36c-0.2 4.04-0.32 8.2-0.36 12.48s-0.04 8.48 0 12.52c-0.12 0.76-1.2 0.84-1.8 0.84-0.52 0-1.68-0.08-1.68-0.84-0.04-4.2-0.04-8.36 0-12.52s0.2-8.28 0.4-12.48c0-0.68 1.2-0.84 1.72-0.84 0.44 0 0.84 0.08 1.24 0.2 0.36 0.12 0.52 0.36 0.48 0.64zm17.64 7.72c0.2 1.64 0.28 3.2 0.16 4.64-0.2 2.88-0.44 5.84-1.68 8.52-1.12 2.44-3.68 4.08-6.4 4.08-1.64 0-3.12-0.48-4.44-1.48s-2.16-2.32-2.6-3.92c-0.4-1.48-0.56-3-0.44-4.52 0.32-5.12 1.04-14.2 7.96-14.2 2.08 0 3.76 0.64 5.04 1.96 1.32 1.32 2.12 2.96 2.4 4.92zm-3.4 6.64 0.08-3.04c0.04-1.08 0-2.16-0.04-3.32-0.08-1.16-0.44-2.32-1.12-3.44-0.64-1.16-1.64-1.72-3-1.72-0.44 0-0.96 0.24-1.48 0.68-2.24 3.16-2.64 6.96-2.92 10.68-0.04 1.04-0.04 2.08 0 3.16 0.08 1.96 0.76 3.64 2 4.96 0.56 0.6 1.2 0.92 1.88 0.92 0.36 0 0.76-0.12 1.12-0.32 1.32-0.84 2.24-2.12 2.68-3.8 0.48-1.68 0.76-3.28 0.8-4.76zm15.56-7.68c0.2-0.36 0.72-0.56 1.56-0.56 0.52 0 1 0.08 1.44 0.24 0.4 0.2 0.52 0.44 0.32 0.72-1.88 3.16-3.92 6-6.16 8.88 2.52 0.52 4.12 2.72 4.8 5.08 0.36 1.32 0.76 2.52 1.12 3.76 0.12 0.36-0.04 0.6-0.4 0.8-0.4 0.16-0.84 0.24-1.36 0.24-0.44 0-1.44-0.12-1.56-0.64-0.12-0.44-0.32-1-0.52-1.92-0.44-1.48-1.68-5.92-3.72-5.92l-0.72 0.04c0 2.36 0.04 4.76 0.12 7.16 0 0.76-1.2 0.84-1.72 0.84-0.6 0-1.64-0.08-1.76-0.84-0.24-7.64-0.16-15.6 0.2-23.88 0.12-0.76 1.12-0.84 1.72-0.84 0.52 0 1.76 0.08 1.76 0.84-0.12 2.28-0.2 4.56-0.24 6.8l-0.12 6.8c1.8-2.32 3.52-4.84 5.24-7.6zm22.64 6.44c0.16 4.32-0.16 8.68-1 13.04-0.12 0.76-1.16 0.8-1.76 0.8-0.4 0-0.8-0.08-1.2-0.2-0.36-0.16-0.52-0.36-0.48-0.6l0.16-0.88 0.12-0.88c-1.4 1-3.48 1.48-5.2 1.48-1.2 0-2.4-0.24-3.6-0.76-1.16-0.52-2-1.36-2.44-2.6-0.36-1-0.48-2.08-0.36-3.24 0.24-2.28 1.12-4.24 2.64-5.92 1.56-1.72 3.48-2.56 5.84-2.56 1.36 0 2.64 0.32 3.8 0.92-0.12-2.68-1.24-10.08-4.92-10.08-2.36 0-5.56 3.2-5.76 5.56-0.12 0.76-1.16 0.84-1.76 0.84-0.44 0-0.84-0.08-1.2-0.24-0.36-0.12-0.56-0.32-0.52-0.6 0.32-3.92 5.68-7.36 9.48-7.36 6.68 0 8.04 8 8.16 13.28zm-12.12 8.76c0.44 1.32 1.36 2.32 2.8 2.32 3.56 0 5.48-3.84 5.6-6.96 0-1-0.28-2.08-0.88-3.16-0.56-1.08-1.44-1.64-2.64-1.64-2.6 0-4.12 3.4-4.76 5.48-0.44 1.44-0.48 2.76-0.12 3.96zm29.16-3.12c0.28 2.2-0.32 3.84-1.8 4.92s-3.16 1.64-5.04 1.64c-1.4 0-2.76-0.32-4.12-0.96-1.32-0.68-2.2-1.72-2.64-3.16-0.28-0.96-0.32-2-0.04-3.16 0.2-0.68 1.28-0.84 1.88-0.84 0.44 0 0.92 0.08 1.36 0.2 0.36 0.16 0.52 0.36 0.48 0.64-0.12 0.44-0.12 1-0.08 1.72 0.04 0.84 0.32 1.72 0.76 2.6 0.48 0.88 1.24 1.32 2.24 1.32h0.2c1.12-0.04 1.92-0.52 2.36-1.44s0.72-1.88 0.76-2.8c0-1.84-0.64-3.32-1.88-4.44s-2.56-2.04-4.04-2.8c-0.88-0.48-1.68-0.96-2.36-1.44-0.76-0.52-1.32-1.24-1.64-2.16-0.36-0.96-0.36-1.96-0.04-2.96 0.44-1.64 1.48-3.16 3.04-4.48 1.6-1.36 3.28-2.04 5.04-2.04 2.4 0 4.56 1.36 5.16 3.76 0.24 1.2 0.36 2.24 0.4 3.08 0 0.28-0.2 0.52-0.56 0.64-0.4 0.16-0.84 0.24-1.28 0.24s-0.88-0.08-1.24-0.24c-0.4-0.12-0.6-0.36-0.6-0.64-0.04-0.28-0.04-0.72-0.08-1.24-0.04-0.4-0.12-0.92-0.28-1.6-0.16-0.56-0.36-1.04-0.6-1.4-0.28-0.36-0.64-0.56-1.04-0.56-0.48 0-0.96 0.24-1.48 0.68-1.48 1.4-2.44 2.6-2.92 4.64-0.32 1.32 0.08 2.44 1.2 3.36 0.84 0.76 1.8 1.32 2.84 1.76 1.44 0.68 2.76 1.6 3.96 2.84s1.88 2.68 2.08 4.32z"/>
   </g>
  </g>
 </g>
</svg>
